<?xml version="1.0" encoding="UTF-8" standalone="no"?>
<!-- Created with Inkscape (http://www.inkscape.org/) -->

<svg
   xmlns:dc="http://purl.org/dc/elements/1.1/"
   xmlns:cc="http://creativecommons.org/ns#"
   xmlns:rdf="http://www.w3.org/1999/02/22-rdf-syntax-ns#"
   xmlns:svg="http://www.w3.org/2000/svg"
   xmlns="http://www.w3.org/2000/svg"
   xmlns:sodipodi="http://sodipodi.sourceforge.net/DTD/sodipodi-0.dtd"
   xmlns:inkscape="http://www.inkscape.org/namespaces/inkscape"
   width="518.9173"
   height="209.05511"
   id="svg3176"
   version="1.1"
   inkscape:version="0.48.4 r9939"
   sodipodi:docname="Logo.svg">
  <defs
     id="defs3178" />
  <sodipodi:namedview
     id="base"
     pagecolor="#ffffff"
     bordercolor="#666666"
     borderopacity="1.0"
     inkscape:pageopacity="0.0"
     inkscape:pageshadow="2"
     inkscape:zoom="1.1749931"
     inkscape:cx="342.51312"
     inkscape:cy="146.0479"
     inkscape:document-units="px"
     inkscape:current-layer="layer1"
     showgrid="false"
     inkscape:window-width="1440"
     inkscape:window-height="876"
     inkscape:window-x="0"
     inkscape:window-y="0"
     inkscape:window-maximized="1"
     units="mm" />
  <metadata
     id="metadata3181">
    <rdf:RDF>
      <cc:Work
         rdf:about="">
        <dc:format>image/svg+xml</dc:format>
        <dc:type
           rdf:resource="http://purl.org/dc/dcmitype/StillImage" />
        <dc:title />
      </cc:Work>
    </rdf:RDF>
  </metadata>
  <g
     inkscape:label="Layer 1"
     inkscape:groupmode="layer"
     id="layer1"
     transform="translate(0,-843.30721)">
    <rect
       transform="matrix(0.76604444,0.64278762,-0.64278762,0.76604444,0,0)"
       style="fill:#f41c0d;fill-opacity:1;stroke:#f41c0d;stroke-width:5;stroke-linecap:round;stroke-linejoin:round;stroke-miterlimit:4;stroke-opacity:1;stroke-dasharray:none;opacity:1"
       id="rect3880"
       width="36.747925"
       height="82.725548"
       x="692.48663"
       y="581.86664" />
    <rect
       y="-880.17133"
       x="-534.15393"
       height="82.725548"
       width="36.747925"
       id="rect3882"
       style="fill:#f41c0d;fill-opacity:1;stroke:#f41c0d;stroke-width:5;stroke-linecap:round;stroke-linejoin:round;stroke-miterlimit:4;stroke-opacity:1;stroke-dasharray:none;opacity:1"
       transform="matrix(0.76604444,-0.64278762,-0.64278762,-0.76604444,0,0)" />
    <rect
       transform="matrix(0,1,-1,0,0,0)"
       y="-379.92639"
       x="892.11334"
       height="82.725548"
       width="36.747925"
       id="rect3886"
       style="fill:#f41c0d;fill-opacity:1;stroke:#f41c0d;stroke-width:5;stroke-linecap:round;stroke-linejoin:round;stroke-miterlimit:4;stroke-opacity:1;stroke-dasharray:none;opacity:1" />
    <rect
       y="892.11334"
       x="320.07379"
       height="119.64024"
       width="36.97971"
       id="rect3888"
       style="fill:#f41c0d;fill-opacity:1;stroke:#f41c0d;stroke-width:5;stroke-linecap:round;stroke-linejoin:round;stroke-miterlimit:4;stroke-opacity:1;stroke-dasharray:none;opacity:1" />
    <rect
       y="395.97803"
       x="911.23499"
       height="63.844707"
       width="38.82341"
       id="rect3890"
       style="fill:#f41c0d;fill-opacity:1;stroke:#f41c0d;stroke-width:5;stroke-linecap:round;stroke-linejoin:round;stroke-miterlimit:4;stroke-opacity:1;stroke-dasharray:none;opacity:1"
       transform="matrix(0.76604444,0.64278762,-0.64278762,0.76604444,0,0)" />
    <rect
       transform="matrix(0.76604444,0.64278762,-0.64278762,0.76604444,0,0)"
       style="fill:#f41c0d;fill-opacity:1;stroke:#f41c0d;stroke-width:5;stroke-linecap:round;stroke-linejoin:round;stroke-miterlimit:4;stroke-opacity:1;stroke-dasharray:none;opacity:1"
       id="rect3892"
       width="38.82341"
       height="63.844707"
       x="963.40063"
       y="434.00735" />
    <path
       style="font-size:medium;font-style:normal;font-variant:normal;font-weight:normal;font-stretch:normal;text-indent:0;text-align:start;text-decoration:none;line-height:normal;letter-spacing:normal;word-spacing:normal;text-transform:none;direction:ltr;block-progression:tb;writing-mode:lr-tb;text-anchor:start;baseline-shift:baseline;color:#000000;fill:#f41c0d;fill-opacity:1;fill-rule:nonzero;stroke:none;stroke-width:5;marker:none;visibility:visible;display:inline;overflow:visible;enable-background:accumulate;font-family:Sans;-inkscape-font-specification:Sans"
       d="m 36.820089,889.6166 c -1.22351,0.12306 -2.25605,1.27033 -2.25,2.5 l 0,39.875 c 29.52521,0 22.67951,0 42,0 l 0,-39.875 c -1.3e-4,-1.30896 -1.19104,-2.49987 -2.5,-2.5 l -37,0 c -0.0833,-0.004 -0.16674,-0.004 -0.25,0 z m -2.25,46.9375 0,75.1875 c 1.3e-4,1.309 1.19104,2.4999 2.5,2.5 l 37,0 c 1.30896,-10e-5 2.49987,-1.191 2.5,-2.5 l 0,-75.1875 c -39.04177,0 -7.58041,0 -42,0 z"
       id="rect3896"
       inkscape:connector-curvature="0"
       sodipodi:nodetypes="ccccccccccccccc" />
    <path
       sodipodi:nodetypes="ccccccccccccccc"
       inkscape:connector-curvature="0"
       id="path3986"
       d="m 220.82009,889.6166 c -1.22351,0.12306 -2.25605,1.27033 -2.25,2.5 l 0,39.875 c 29.52521,0 22.67951,0 42,0 l 0,-39.875 c -1.3e-4,-1.30896 -1.19104,-2.49987 -2.5,-2.5 l -37,0 c -0.0833,-0.004 -0.16674,-0.004 -0.25,0 z m -2.25,46.9375 0,75.1875 c 1.3e-4,1.309 1.19104,2.4999 2.5,2.5 l 37,0 c 1.30896,-10e-5 2.49987,-1.191 2.5,-2.5 l 0,-75.1875 c -39.04177,0 -7.58041,0 -42,0 z"
       style="font-size:medium;font-style:normal;font-variant:normal;font-weight:normal;font-stretch:normal;text-indent:0;text-align:start;text-decoration:none;line-height:normal;letter-spacing:normal;word-spacing:normal;text-transform:none;direction:ltr;block-progression:tb;writing-mode:lr-tb;text-anchor:start;baseline-shift:baseline;color:#000000;fill:#f41c0d;fill-opacity:1;fill-rule:nonzero;stroke:none;stroke-width:5;marker:none;visibility:visible;display:inline;overflow:visible;enable-background:accumulate;font-family:Sans;-inkscape-font-specification:Sans" />
  </g>
</svg>
